<?xml version="1.0" encoding="UTF-8"?>
<svg id="Layer_2" data-name="Layer 2" xmlns="http://www.w3.org/2000/svg" viewBox="0 0 576 576">
  <defs>
    <style>
      .cls-1 {
        fill: #3c3c5a;
      }

      .cls-1, .cls-2 {
        stroke-width: 0px;
      }

      .cls-2 {
        fill: #96e6be;
      }
    </style>
  </defs>
  <g id="Layer_1-2" data-name="Layer 1">
    <g>
      <rect class="cls-1" width="576" height="576"/>
      <path class="cls-2" d="m439.27,205.48c-30.38,1.39-55.51,24.43-58.41,53.53-.43,4.35-.36,8.6.15,12.73.68,5.45-2.01,10.77-6.97,13.5l-54.52,29.93c-7.17,3.94-16.09-1.04-16.09-8.97v-107.82c0-5.44,3.41-10.33,8.63-12.46,23.73-9.66,39.87-33.18,37.41-59.99-2.63-28.76-27.11-51.79-57.08-53.77-36.07-2.39-66.1,25.01-66.1,59.15,0,24.55,15.53,45.61,37.66,54.62,5.22,2.12,8.63,7.01,8.63,12.46v107.82c0,7.93-8.92,12.91-16.09,8.97l-54.52-29.93c-4.96-2.72-7.65-8.05-6.97-13.5.51-4.13.58-8.38.15-12.73-2.9-29.09-28.03-52.13-58.41-53.53-36.89-1.69-67.09,27.75-64.59,63.34,2.08,29.61,27.27,53.47,58.11,55.09,16.6.87,31.86-4.57,43.43-14.05,4.57-3.74,11.04-4.44,16.26-1.58l71.77,39.4c6.71,3.68,10.85,10.54,10.85,17.97v44.64c0,50.48-27.66,100.26-51.16,145.41l-10.56,20.29h154.29l-10.56-20.29c-23.5-45.15-51.16-94.93-51.16-145.41v-44.64c0-7.43,4.14-14.29,10.85-17.97l71.77-39.4c5.22-2.86,11.69-2.17,16.26,1.58,11.58,9.48,26.84,14.92,43.43,14.05,30.84-1.62,56.03-25.48,58.11-55.09,2.5-35.58-27.7-65.03-64.59-63.34Z"/>
    </g>
  </g>
</svg>